<svg xmlns="http://www.w3.org/2000/svg" viewBox="0 0 512 512" role="img" aria-label="Sanctum Cafe">
  <rect width="512" height="512" rx="112" fill="#0f0f13"/>
  <rect x="40" y="40" width="432" height="432" rx="88" fill="#1e1e2a" stroke="#d4a853" stroke-width="12"/>
  <path d="M151 210h194v78c0 55-45 100-100 100h-11c-46 0-83-37-83-83v-95Z" fill="#d4a853"/>
  <path d="M345 234h22c27 0 49 22 49 49s-22 49-49 49h-22v-32h22c9 0 17-8 17-17s-8-17-17-17h-22v-32Z" fill="#d4a853"/>
  <path d="M178 174c0-22 18-33 18-55M246 174c0-22 18-33 18-55M314 174c0-22 18-33 18-55" fill="none" stroke="#ede8e0" stroke-width="22" stroke-linecap="round"/>
  <path d="M132 397h235" stroke="#ede8e0" stroke-width="22" stroke-linecap="round"/>
</svg>
